<?xml version="1.0" encoding="UTF-8"?>
<svg width="272px" height="95px" viewBox="0 0 272 95" version="1.1" xmlns="http://www.w3.org/2000/svg" xmlns:xlink="http://www.w3.org/1999/xlink">
    <!-- Generator: Sketch 50.2 (55047) - http://www.bohemiancoding.com/sketch -->
    <title>evenement-4k</title>
    <desc>Created with Sketch.</desc>
    <defs>
        <linearGradient x1="0%" y1="130.050223%" x2="89.9764151%" y2="-30.9709821%" id="linearGradient-1">
            <stop stop-color="#C40079" offset="0%"></stop>
            <stop stop-color="#E4A63F" offset="100%"></stop>
        </linearGradient>
    </defs>
    <g id="Page-1" stroke="none" stroke-width="1" fill="none" fill-rule="evenodd">
        <g id="evenement-4k">
            <path d="M44.4594595,0 L51.6216216,0 L51.6216216,61.2071429 L61.4864865,61.2071429 L61.4864865,67.8571429 L51.6216216,67.8571429 L51.6216216,95 L44.4594595,95 L44.4594595,67.8571429 L0,67.8571429 L0,61.2071429 L44.4594595,0 Z M8.37837838,61.2071429 L44.4594595,61.2071429 L44.4594595,11.6714286 L8.37837838,61.2071429 Z M83.9189189,0 L83.9189189,61.4785714 L117.432432,24.9714286 L126.621622,24.9714286 L101.351351,52.5214286 L130,95 L121.486486,95 L96.3513514,57.8142857 L83.9189189,71.3857143 L83.9189189,95 L76.7567568,95 L76.7567568,0 L83.9189189,0 Z" id="4k-copy" fill="url(#linearGradient-1)" fill-rule="nonzero"></path>
            <path d="M140.9216,59.6848004 C140.9216,57.4960003 142.448,56.7760003 143.8304,56.7760003 C145.2128,56.7760003 146.7392,57.4960003 146.7392,59.6848004 L146.7392,59.8000004 L145.6592,59.8000004 L145.6592,59.6704004 C145.6592,58.4320004 144.7952,57.8128004 143.8304,57.8128004 C142.8656,57.8128004 142.0016,58.4320004 142.0016,59.6704004 L142.0016,61.4128005 C142.376,60.9808005 143.1536,60.7072005 143.8304,60.7072005 C145.2128,60.7072005 146.7392,61.4272005 146.7392,63.6160006 L146.7392,64.2352006 C146.7392,66.4240007 145.2128,67.1440007 143.8304,67.1440007 C142.448,67.1440007 140.9216,66.4240007 140.9216,64.2352006 L140.9216,59.6848004 Z M142.0016,63.6016006 L142.0016,64.2496006 C142.0016,65.4880007 142.8656,66.1072007 143.8304,66.1072007 C144.7952,66.1072007 145.6592,65.4880007 145.6592,64.2496006 L145.6592,63.6016006 C145.6592,62.3632005 144.7952,61.7440005 143.8304,61.7440005 C142.8656,61.7440005 142.0016,62.3632005 142.0016,63.6016006 Z M153.233601,64.2496006 L153.233601,59.6704004 C153.233601,58.4320004 152.3696,57.8128004 151.4048,57.8128004 C150.44,57.8128004 149.576,58.4320004 149.576,59.6704004 L149.576,64.2496006 C149.576,65.4880007 150.44,66.1072007 151.4048,66.1072007 C152.3696,66.1072007 153.233601,65.4880007 153.233601,64.2496006 Z M154.313601,59.6848004 L154.313601,64.2352006 C154.313601,66.4240007 152.787201,67.1440007 151.4048,67.1440007 C150.0224,67.1440007 148.496,66.4240007 148.496,64.2352006 L148.496,59.6848004 C148.496,57.4960003 150.0224,56.7760003 151.4048,56.7760003 C152.787201,56.7760003 154.313601,57.4960003 154.313601,59.6848004 Z M167.475201,56.9200003 L168.497601,56.9200003 L161.571201,67.0000007 L160.548801,67.0000007 L167.475201,56.9200003 Z M161.268801,61.9456005 C161.816001,61.9456005 162.161601,61.6576005 162.161601,61.0096005 L162.161601,58.6768004 C162.161601,58.0288004 161.816001,57.7408003 161.268801,57.7408003 C160.736001,57.7408003 160.390401,58.0288004 160.390401,58.6768004 L160.390401,61.0096005 C160.390401,61.6576005 160.736001,61.9456005 161.268801,61.9456005 Z M161.268801,62.8528006 C160.534401,62.8528006 159.454401,62.4928005 159.454401,61.0384005 L159.454401,58.6480004 C159.454401,57.1936003 160.534401,56.8336003 161.268801,56.8336003 C162.017601,56.8336003 163.097601,57.1936003 163.097601,58.6480004 L163.097601,61.0384005 C163.097601,62.4928005 162.017601,62.8528006 161.268801,62.8528006 Z M167.763201,66.1792007 C168.310401,66.1792007 168.656001,65.8912007 168.656001,65.2432006 L168.656001,62.9104006 C168.656001,62.2624005 168.310401,61.9744005 167.763201,61.9744005 C167.230401,61.9744005 166.884801,62.2624005 166.884801,62.9104006 L166.884801,65.2432006 C166.884801,65.8912007 167.230401,66.1792007 167.763201,66.1792007 Z M167.763201,67.0864007 C167.028801,67.0864007 165.948801,66.7264007 165.948801,65.2720006 L165.948801,62.8816006 C165.948801,61.4272005 167.028801,61.0672005 167.763201,61.0672005 C168.512001,61.0672005 169.592001,61.4272005 169.592001,62.8816006 L169.592001,65.2720006 C169.592001,66.7264007 168.512001,67.0864007 167.763201,67.0864007 Z M181.472002,60.0016004 C181.472002,61.7872005 180.550402,63.0832006 178.217602,63.0832006 L176.072001,63.0832006 L176.072001,67.0000007 L174.963201,67.0000007 L174.963201,56.9200003 L178.217602,56.9200003 C180.550402,56.9200003 181.472002,58.2160004 181.472002,60.0016004 Z M180.334402,60.0016004 C180.334402,58.9072004 179.772802,58.0144004 178.217602,58.0144004 L176.072001,58.0144004 L176.072001,61.9888005 L178.217602,61.9888005 C179.772802,61.9888005 180.334402,61.0960005 180.334402,60.0016004 Z M185.748802,62.4352005 L184.150402,62.4352005 L184.150402,67.0000007 L183.041602,67.0000007 L183.041602,56.9200003 L186.468802,56.9200003 C188.614402,56.9200003 189.377602,58.3456004 189.377602,59.6848004 C189.377602,60.9088005 188.744002,62.1760005 187.016002,62.4064005 L189.708802,67.0000007 L188.427202,67.0000007 L185.748802,62.4352005 Z M188.254402,59.6848004 C188.254402,58.7200004 187.606402,58.0144004 186.468802,58.0144004 L184.150402,58.0144004 L184.150402,61.3696005 L186.468802,61.3696005 C187.606402,61.3696005 188.254402,60.6496005 188.254402,59.6848004 Z M192.387202,62.4496005 L192.387202,65.9056007 L197.009602,65.9056007 L197.009602,67.0000007 L191.278402,67.0000007 L191.278402,56.9200003 L197.009602,56.9200003 L197.009602,58.0144004 L192.387202,58.0144004 L192.387202,61.3552005 L197.009602,61.3552005 L197.009602,62.4496005 L192.387202,62.4496005 Z M201.718402,67.1440007 C199.889602,67.1440007 198.593602,65.9488007 198.449602,64.0192006 L199.587202,64.0192006 C199.760002,65.3152006 200.638402,66.0496007 201.718402,66.0496007 C202.856002,66.0496007 203.648003,65.5168007 203.648003,64.4512006 C203.648003,63.5440006 203.158403,62.9968006 202.020802,62.6800005 L200.739202,62.3200005 C199.241602,61.9024005 198.622402,60.6784005 198.622402,59.4544004 C198.622402,57.7264003 199.990402,56.7760003 201.603202,56.7760003 C203.345603,56.7760003 204.425603,57.7552003 204.641603,59.4688004 L203.504003,59.4688004 C203.288003,58.5040004 202.683202,57.8704004 201.603202,57.8704004 C200.393602,57.8704004 199.745602,58.5760004 199.745602,59.4544004 C199.745602,60.3760005 200.206402,60.9520005 201.243202,61.2400005 L202.424002,61.5712005 C203.849603,61.9744005 204.771203,62.8528006 204.771203,64.4512006 C204.771203,66.0640007 203.734403,67.1440007 201.718402,67.1440007 Z M209.480003,56.7760003 C211.323203,56.7760003 212.604803,57.9568004 212.720003,59.9008004 L211.611203,59.9008004 C211.496003,58.5616004 210.603203,57.8704004 209.480003,57.8704004 C208.284803,57.8704004 207.334403,58.6624004 207.334403,60.1888004 L207.334403,63.7312006 C207.334403,65.2576006 208.284803,66.0496007 209.480003,66.0496007 C210.603203,66.0496007 211.496003,65.3584007 211.611203,64.0192006 L212.720003,64.0192006 C212.604803,65.9632007 211.323203,67.1440007 209.480003,67.1440007 C207.550403,67.1440007 206.225603,65.8480007 206.225603,63.7312006 L206.225603,60.1888004 C206.225603,58.0720004 207.550403,56.7760003 209.480003,56.7760003 Z M217.284803,62.4352005 L215.686403,62.4352005 L215.686403,67.0000007 L214.577603,67.0000007 L214.577603,56.9200003 L218.004803,56.9200003 C220.150403,56.9200003 220.913603,58.3456004 220.913603,59.6848004 C220.913603,60.9088005 220.280003,62.1760005 218.552003,62.4064005 L221.244803,67.0000007 L219.963203,67.0000007 L217.284803,62.4352005 Z M219.790403,59.6848004 C219.790403,58.7200004 219.142403,58.0144004 218.004803,58.0144004 L215.686403,58.0144004 L215.686403,61.3696005 L218.004803,61.3696005 C219.142403,61.3696005 219.790403,60.6496005 219.790403,59.6848004 Z M222.814403,67.0000007 L222.814403,56.9200003 L223.923203,56.9200003 L223.923203,67.0000007 L222.814403,67.0000007 Z M232.736004,60.0016004 C232.736004,61.7872005 231.814404,63.0832006 229.481604,63.0832006 L227.336003,63.0832006 L227.336003,67.0000007 L226.227203,67.0000007 L226.227203,56.9200003 L229.481604,56.9200003 C231.814404,56.9200003 232.736004,58.2160004 232.736004,60.0016004 Z M231.598404,60.0016004 C231.598404,58.9072004 231.036804,58.0144004 229.481604,58.0144004 L227.336003,58.0144004 L227.336003,61.9888005 L229.481604,61.9888005 C231.036804,61.9888005 231.598404,61.0960005 231.598404,60.0016004 Z M236.048004,58.0144004 L233.355204,58.0144004 L233.355204,56.9200003 L239.849604,56.9200003 L239.849604,58.0144004 L237.156804,58.0144004 L237.156804,67.0000007 L236.048004,67.0000007 L236.048004,58.0144004 Z M242.312004,62.4496005 L242.312004,65.9056007 L246.934404,65.9056007 L246.934404,67.0000007 L241.203204,67.0000007 L241.203204,56.9200003 L246.934404,56.9200003 L246.934404,58.0144004 L242.312004,58.0144004 L242.312004,61.3552005 L246.934404,61.3552005 L246.934404,62.4496005 L242.312004,62.4496005 Z M248.878404,63.7312006 L248.878404,56.9200003 L249.987204,56.9200003 L249.987204,63.7312006 C249.987204,65.2576006 250.937604,66.0496007 252.132804,66.0496007 C253.328005,66.0496007 254.278405,65.2576006 254.278405,63.7312006 L254.278405,56.9200003 L255.387205,56.9200003 L255.387205,63.7312006 C255.387205,65.8480007 254.062405,67.1440007 252.132804,67.1440007 C250.203204,67.1440007 248.878404,65.8480007 248.878404,63.7312006 Z M260.268805,62.4352005 L258.670405,62.4352005 L258.670405,67.0000007 L257.561605,67.0000007 L257.561605,56.9200003 L260.988805,56.9200003 C263.134405,56.9200003 263.897605,58.3456004 263.897605,59.6848004 C263.897605,60.9088005 263.264005,62.1760005 261.536005,62.4064005 L264.228805,67.0000007 L262.947205,67.0000007 L260.268805,62.4352005 Z M262.774405,59.6848004 C262.774405,58.7200004 262.126405,58.0144004 260.988805,58.0144004 L258.670405,58.0144004 L258.670405,61.3696005 L260.988805,61.3696005 C262.126405,61.3696005 262.774405,60.6496005 262.774405,59.6848004 Z M268.433605,67.1440007 C266.604805,67.1440007 265.308805,65.9488007 265.164805,64.0192006 L266.302405,64.0192006 C266.475205,65.3152006 267.353605,66.0496007 268.433605,66.0496007 C269.571205,66.0496007 270.363205,65.5168007 270.363205,64.4512006 C270.363205,63.5440006 269.873605,62.9968006 268.736005,62.6800005 L267.454405,62.3200005 C265.956805,61.9024005 265.337605,60.6784005 265.337605,59.4544004 C265.337605,57.7264003 266.705605,56.7760003 268.318405,56.7760003 C270.060805,56.7760003 271.140805,57.7552003 271.356805,59.4688004 L270.219205,59.4688004 C270.003205,58.5040004 269.398405,57.8704004 268.318405,57.8704004 C267.108805,57.8704004 266.460805,58.5760004 266.460805,59.4544004 C266.460805,60.3760005 266.921605,60.9520005 267.958405,61.2400005 L269.139205,61.5712005 C270.564805,61.9744005 271.486405,62.8528006 271.486405,64.4512006 C271.486405,66.0640007 270.449605,67.1440007 268.433605,67.1440007 Z M146.9696,82.2784013 L145.9184,82.2784013 L145.9184,85.0000014 L144.8384,85.0000014 L144.8384,82.2784013 L140.216,82.2784013 L140.216,81.2704013 L144.8384,74.920001 L145.9184,74.920001 L145.9184,81.2704013 L146.9696,81.2704013 L146.9696,82.2784013 Z M141.4544,81.2704013 L144.8384,81.2704013 L144.8384,76.6336011 L141.4544,81.2704013 Z M153.032001,82.2496013 L153.032001,77.6704011 C153.032001,76.4320011 152.168,75.8128011 151.2032,75.8128011 C150.2384,75.8128011 149.3744,76.4320011 149.3744,77.6704011 L149.3744,82.2496013 C149.3744,83.4880014 150.2384,84.1072014 151.2032,84.1072014 C152.168,84.1072014 153.032001,83.4880014 153.032001,82.2496013 Z M154.112001,77.6848011 L154.112001,82.2352013 C154.112001,84.4240014 152.585601,85.1440014 151.2032,85.1440014 C149.8208,85.1440014 148.2944,84.4240014 148.2944,82.2352013 L148.2944,77.6848011 C148.2944,75.4960011 149.8208,74.776001 151.2032,74.776001 C152.585601,74.776001 154.112001,75.4960011 154.112001,77.6848011 Z M167.273601,74.920001 L168.296001,74.920001 L161.369601,85.0000014 L160.347201,85.0000014 L167.273601,74.920001 Z M161.067201,79.9456012 C161.614401,79.9456012 161.960001,79.6576012 161.960001,79.0096012 L161.960001,76.6768011 C161.960001,76.0288011 161.614401,75.7408011 161.067201,75.7408011 C160.534401,75.7408011 160.188801,76.0288011 160.188801,76.6768011 L160.188801,79.0096012 C160.188801,79.6576012 160.534401,79.9456012 161.067201,79.9456012 Z M161.067201,80.8528013 C160.332801,80.8528013 159.252801,80.4928013 159.252801,79.0384012 L159.252801,76.6480011 C159.252801,75.193601 160.332801,74.833601 161.067201,74.833601 C161.816001,74.833601 162.896001,75.193601 162.896001,76.6480011 L162.896001,79.0384012 C162.896001,80.4928013 161.816001,80.8528013 161.067201,80.8528013 Z M167.561601,84.1792014 C168.108801,84.1792014 168.454401,83.8912014 168.454401,83.2432014 L168.454401,80.9104013 C168.454401,80.2624012 168.108801,79.9744012 167.561601,79.9744012 C167.028801,79.9744012 166.683201,80.2624012 166.683201,80.9104013 L166.683201,83.2432014 C166.683201,83.8912014 167.028801,84.1792014 167.561601,84.1792014 Z M167.561601,85.0864014 C166.827201,85.0864014 165.747201,84.7264014 165.747201,83.2720014 L165.747201,80.8816013 C165.747201,79.4272012 166.827201,79.0672012 167.561601,79.0672012 C168.310401,79.0672012 169.390401,79.4272012 169.390401,80.8816013 L169.390401,83.2720014 C169.390401,84.7264014 168.310401,85.0864014 167.561601,85.0864014 Z M180.435202,85.0000014 L179.513602,82.1632013 L175.856001,82.1632013 L174.934401,85.0000014 L173.811201,85.0000014 L177.051201,74.920001 L178.318402,74.920001 L181.558402,85.0000014 L180.435202,85.0000014 Z M179.182402,81.1408013 L177.684801,76.4608011 L176.187201,81.1408013 L179.182402,81.1408013 Z M185.864002,74.776001 C187.707202,74.776001 188.988802,75.9568011 189.104002,77.9008011 L187.995202,77.9008011 C187.880002,76.5616011 186.987202,75.8704011 185.864002,75.8704011 C184.668802,75.8704011 183.718402,76.6624011 183.718402,78.1888012 L183.718402,81.7312013 C183.718402,83.2576014 184.668802,84.0496014 185.864002,84.0496014 C186.987202,84.0496014 187.880002,83.3584014 187.995202,82.0192013 L189.104002,82.0192013 C188.988802,83.9632014 187.707202,85.1440014 185.864002,85.1440014 C183.934402,85.1440014 182.609602,83.8480014 182.609602,81.7312013 L182.609602,78.1888012 C182.609602,76.0720011 183.934402,74.776001 185.864002,74.776001 Z M196.361602,79.3552012 L196.361602,74.920001 L197.470402,74.920001 L197.470402,85.0000014 L196.361602,85.0000014 L196.361602,80.4496012 L192.070402,80.4496012 L192.070402,85.0000014 L190.961602,85.0000014 L190.961602,74.920001 L192.070402,74.920001 L192.070402,79.3552012 L196.361602,79.3552012 Z M200.883202,80.4496012 L200.883202,83.9056014 L205.505603,83.9056014 L205.505603,85.0000014 L199.774402,85.0000014 L199.774402,74.920001 L205.505603,74.920001 L205.505603,76.0144011 L200.883202,76.0144011 L200.883202,79.3552012 L205.505603,79.3552012 L205.505603,80.4496012 L200.883202,80.4496012 Z M209.321603,76.0144011 L206.628803,76.0144011 L206.628803,74.920001 L213.123203,74.920001 L213.123203,76.0144011 L210.430403,76.0144011 L210.430403,85.0000014 L209.321603,85.0000014 L209.321603,76.0144011 Z M215.585603,80.4496012 L215.585603,83.9056014 L220.208003,83.9056014 L220.208003,85.0000014 L214.476803,85.0000014 L214.476803,74.920001 L220.208003,74.920001 L220.208003,76.0144011 L215.585603,76.0144011 L215.585603,79.3552012 L220.208003,79.3552012 L220.208003,80.4496012 L215.585603,80.4496012 Z M222.152003,81.7312013 L222.152003,74.920001 L223.260803,74.920001 L223.260803,81.7312013 C223.260803,83.2576014 224.211203,84.0496014 225.406403,84.0496014 C226.601603,84.0496014 227.552003,83.2576014 227.552003,81.7312013 L227.552003,74.920001 L228.660804,74.920001 L228.660804,81.7312013 C228.660804,83.8480014 227.336003,85.1440014 225.406403,85.1440014 C223.476803,85.1440014 222.152003,83.8480014 222.152003,81.7312013 Z M233.542404,80.4352012 L231.944004,80.4352012 L231.944004,85.0000014 L230.835204,85.0000014 L230.835204,74.920001 L234.262404,74.920001 C236.408004,74.920001 237.171204,76.3456011 237.171204,77.6848011 C237.171204,78.9088012 236.537604,80.1760012 234.809604,80.4064012 L237.502404,85.0000014 L236.220804,85.0000014 L233.542404,80.4352012 Z M236.048004,77.6848011 C236.048004,76.7200011 235.400004,76.0144011 234.262404,76.0144011 L231.944004,76.0144011 L231.944004,79.3696012 L234.262404,79.3696012 C235.400004,79.3696012 236.048004,78.6496012 236.048004,77.6848011 Z M241.707204,85.1440014 C239.878404,85.1440014 238.582404,83.9488014 238.438404,82.0192013 L239.576004,82.0192013 C239.748804,83.3152014 240.627204,84.0496014 241.707204,84.0496014 C242.844804,84.0496014 243.636804,83.5168014 243.636804,82.4512013 C243.636804,81.5440013 243.147204,80.9968013 242.009604,80.6800013 L240.728004,80.3200012 C239.230404,79.9024012 238.611204,78.6784012 238.611204,77.4544011 C238.611204,75.7264011 239.979204,74.776001 241.592004,74.776001 C243.334404,74.776001 244.414404,75.7552011 244.630404,77.4688011 L243.492804,77.4688011 C243.276804,76.5040011 242.672004,75.8704011 241.592004,75.8704011 C240.382404,75.8704011 239.734404,76.5760011 239.734404,77.4544011 C239.734404,78.3760012 240.195204,78.9520012 241.232004,79.2400012 L242.412804,79.5712012 C243.838404,79.9744012 244.760004,80.8528013 244.760004,82.4512013 C244.760004,84.0640014 243.723204,85.1440014 241.707204,85.1440014 Z" id="60-%-prescripteurs-4-copy" fill="#00416D" fill-rule="nonzero"></path>
            <g id="Group-27-Copy" transform="translate(139.000000, 22.000000)" fill="#00416D">
                <path d="M3.98,10.04 L7.02,10.04 C8.5,10.04 9.18,8.92 9.18,7.84 C9.18,6.76 8.5,5.66 7.02,5.66 L3.98,5.66 L3.98,10.04 Z M3.98,12.7 L3.98,17 L1.3,17 L1.3,3 L7.02,3 C10.34,3 11.86,5.28 11.86,7.84 C11.86,10.38 10.34,12.7 7.02,12.7 L3.98,12.7 Z M19.96,11.64 L18.4,7.1 L16.84,11.64 L19.96,11.64 Z M20.88,14.18 L15.92,14.18 L14.92,17 L12.12,17 L17.12,3 L19.68,3 L24.68,17 L21.88,17 L20.88,14.18 Z M30.28,11.24 L28.64,11.24 L28.64,17 L25.96,17 L25.96,3 L31.86,3 C34.7,3 36.28,4.6 36.28,7.12 C36.28,9.2 35.22,10.64 33.26,11.1 L36.74,17 L33.66,17 L30.28,11.24 Z M33.6,7.16 C33.6,6.18 32.94,5.66 31.92,5.66 L28.64,5.66 L28.64,8.64 L31.92,8.64 C32.94,8.64 33.6,8.12 33.6,7.16 Z M47.56,5.66 L43.66,5.66 L43.66,17 L40.9,17 L40.9,5.66 L37,5.66 L37,3 L47.56,3 L47.56,5.66 Z M51.52,3 L51.52,17 L48.84,17 L48.84,3 L51.52,3 Z M61.56,12.32 L64.26,12.32 C64.14,15.26 62.24,17.2 58.98,17.2 C55.62,17.2 53.7,15.12 53.7,12.02 L53.7,7.98 C53.7,4.88 55.62,2.8 58.98,2.8 C62.24,2.8 64.14,4.74 64.26,7.68 L61.56,7.68 C61.42,6.26 60.34,5.46 58.98,5.46 C57.52,5.46 56.38,6.36 56.38,7.98 L56.38,12.02 C56.38,13.64 57.52,14.54 58.98,14.54 C60.34,14.54 61.42,13.76 61.56,12.32 Z M68.92,3 L68.92,17 L66.24,17 L66.24,3 L68.92,3 Z M74.2,10.04 L77.24,10.04 C78.72,10.04 79.4,8.92 79.4,7.84 C79.4,6.76 78.72,5.66 77.24,5.66 L74.2,5.66 L74.2,10.04 Z M74.2,12.7 L74.2,17 L71.52,17 L71.52,3 L77.24,3 C80.56,3 82.08,5.28 82.08,7.84 C82.08,10.38 80.56,12.7 77.24,12.7 L74.2,12.7 Z M90.18,11.64 L88.62,7.1 L87.06,11.64 L90.18,11.64 Z M91.1,14.18 L86.14,14.18 L85.14,17 L82.34,17 L87.34,3 L89.9,3 L94.9,17 L92.1,17 L91.1,14.18 Z M106.74,3 L106.74,17 L104.06,17 L98.86,7.98 L98.86,17 L96.18,17 L96.18,3 L98.86,3 L104.06,12.02 L104.06,3 L106.74,3 Z M118.58,5.66 L114.68,5.66 L114.68,17 L111.92,17 L111.92,5.66 L108.02,5.66 L108.02,3 L118.58,3 L118.58,5.66 Z M124.16,17.2 C121.1,17.2 119.12,15.36 118.98,12.58 L121.74,12.58 C121.9,13.76 122.82,14.54 124.16,14.54 C125.34,14.54 126.16,14.1 126.16,13.14 C126.16,12.36 125.7,11.92 124.72,11.66 L122.36,11.02 C120.22,10.44 119.16,8.94 119.16,6.88 C119.16,4.08 121.36,2.8 123.8,2.8 C126.6,2.8 128.34,4.44 128.64,6.82 L125.88,6.82 C125.64,5.88 124.66,5.46 123.76,5.46 C122.64,5.46 121.84,5.9 121.84,6.88 C121.84,7.7 122.48,8.06 123.24,8.26 L125.52,8.88 C127.68,9.46 128.84,10.78 128.84,13.14 C128.84,15.66 127.2,17.2 124.16,17.2 Z" id="PARTICIPANTS"></path>
            </g>
        </g>
    </g>
</svg>