<?xml version="1.0" encoding="UTF-8"?>
<svg width="156px" height="95px" viewBox="0 0 156 95" version="1.1" xmlns="http://www.w3.org/2000/svg" xmlns:xlink="http://www.w3.org/1999/xlink">
    <!-- Generator: Sketch 50.2 (55047) - http://www.bohemiancoding.com/sketch -->
    <title>Group 7</title>
    <desc>Created with Sketch.</desc>
    <defs>
        <linearGradient x1="-13.7190934%" y1="110.226935%" x2="100%" y2="-8.54166667%" id="linearGradient-1">
            <stop stop-color="#00416D" offset="0%"></stop>
            <stop stop-color="#9CB748" offset="100%"></stop>
        </linearGradient>
    </defs>
    <g id="Page-1" stroke="none" stroke-width="1" fill="none" fill-rule="evenodd">
        <g id="Infos-pratiques-PIP-Copy-4" transform="translate(-40.000000, -460.000000)">
            <g id="Group-7" transform="translate(40.000000, 460.000000)">
                <path d="M44.1076923,0 L51.2131868,0 L51.2131868,61.2071429 L61,61.2071429 L61,67.8571429 L51.2131868,67.8571429 L51.2131868,95 L44.1076923,95 L44.1076923,67.8571429 L0,67.8571429 L0,61.2071429 L44.1076923,0 Z M8.31208791,61.2071429 L44.1076923,61.2071429 L44.1076923,11.6714286 L8.31208791,61.2071429 Z" id="4" fill="url(#linearGradient-1)"></path>
                <path d="M83.6608003,60.0016004 C83.6608003,61.7872005 82.7392003,63.0832006 80.4064002,63.0832006 L78.2608001,63.0832006 L78.2608001,67.0000007 L77.152,67.0000007 L77.152,56.9200003 L80.4064002,56.9200003 C82.7392003,56.9200003 83.6608003,58.2160004 83.6608003,60.0016004 Z M82.5232003,60.0016004 C82.5232003,58.9072004 81.9616002,58.0144004 80.4064002,58.0144004 L78.2608001,58.0144004 L78.2608001,61.9888005 L80.4064002,61.9888005 C81.9616002,61.9888005 82.5232003,61.0960005 82.5232003,60.0016004 Z M90.9040006,67.0000007 L89.9824006,64.1632006 L86.3248004,64.1632006 L85.4032004,67.0000007 L84.2800003,67.0000007 L87.5200005,56.9200003 L88.7872005,56.9200003 L92.0272006,67.0000007 L90.9040006,67.0000007 Z M89.6512005,63.1408006 L88.1536005,58.4608004 L86.6560004,63.1408006 L89.6512005,63.1408006 Z M96.3328008,56.7760003 C98.1760009,56.7760003 99.4576009,57.9568004 99.5728009,59.9008004 L98.4640009,59.9008004 C98.3488009,58.5616004 97.4560009,57.8704004 96.3328008,57.8704004 C95.1376008,57.8704004 94.1872007,58.6624004 94.1872007,60.1888004 L94.1872007,63.7312006 C94.1872007,65.2576006 95.1376008,66.0496007 96.3328008,66.0496007 C97.4560009,66.0496007 98.3488009,65.3584007 98.4640009,64.0192006 L99.5728009,64.0192006 C99.4576009,65.9632007 98.1760009,67.1440007 96.3328008,67.1440007 C94.4032007,67.1440007 93.0784007,65.8480007 93.0784007,63.7312006 L93.0784007,60.1888004 C93.0784007,58.0720004 94.4032007,56.7760003 96.3328008,56.7760003 Z M102.539201,64.0336006 L102.539201,67.0000007 L101.430401,67.0000007 L101.430401,56.9200003 L102.539201,56.9200003 L102.539201,62.3920005 L107.190401,56.9200003 L108.601601,56.9200003 L105.059201,61.0672005 L108.976001,67.0000007 L107.665601,67.0000007 L104.324801,61.9312005 L102.539201,64.0336006 Z M116.305602,56.9200003 L117.342402,56.9200003 L113.267201,67.0000007 L112.230401,67.0000007 L116.305602,56.9200003 Z M121.662402,56.9200003 L124.916802,56.9200003 C126.846402,56.9200003 128.171202,58.2160004 128.171202,60.3328005 L128.171202,63.5872006 C128.171202,65.7040007 126.846402,67.0000007 124.916802,67.0000007 L121.662402,67.0000007 L121.662402,56.9200003 Z M124.916802,58.0144004 L122.771202,58.0144004 L122.771202,65.9056007 L124.916802,65.9056007 C126.112002,65.9056007 127.062402,65.1136006 127.062402,63.5872006 L127.062402,60.3328005 C127.062402,58.8064004 126.112002,58.0288004 124.916802,58.0144004 Z M131.281602,62.4496005 L131.281602,65.9056007 L135.904002,65.9056007 L135.904002,67.0000007 L130.172802,67.0000007 L130.172802,56.9200003 L135.904002,56.9200003 L135.904002,58.0144004 L131.281602,58.0144004 L131.281602,61.3552005 L135.904002,61.3552005 L135.904002,62.4496005 L131.281602,62.4496005 Z M133.398402,54.7024002 L134.982402,54.7024002 L133.139202,56.2720003 L132.073602,56.2720003 L133.398402,54.7024002 Z M140.929603,56.7760003 C142.772803,56.7760003 144.054403,57.9568004 144.169603,59.9008004 L143.060803,59.9008004 C142.945603,58.5616004 142.052803,57.8704004 140.929603,57.8704004 C139.734403,57.8704004 138.784002,58.6624004 138.784002,60.1888004 L138.784002,63.7312006 C138.784002,65.2576006 139.734403,66.0496007 140.929603,66.0496007 C142.052803,66.0496007 142.945603,65.3584007 143.060803,64.0192006 L144.169603,64.0192006 C144.054403,65.9632007 142.772803,67.1440007 140.929603,67.1440007 C139.000003,67.1440007 137.675202,65.8480007 137.675202,63.7312006 L137.675202,60.1888004 C137.675202,58.0720004 139.000003,56.7760003 140.929603,56.7760003 Z M151.124803,63.7312006 L151.124803,60.1888004 C151.124803,58.6624004 150.174403,57.8704004 148.979203,57.8704004 C147.784003,57.8704004 146.833603,58.6624004 146.833603,60.1888004 L146.833603,63.7312006 C146.833603,65.2576006 147.784003,66.0496007 148.979203,66.0496007 C150.174403,66.0496007 151.124803,65.2576006 151.124803,63.7312006 Z M152.233603,60.1888004 L152.233603,63.7312006 C152.233603,65.8480007 150.908803,67.1440007 148.979203,67.1440007 C147.049603,67.1440007 145.724803,65.8480007 145.724803,63.7312006 L145.724803,60.1888004 C145.724803,58.0720004 147.049603,56.7760003 148.979203,56.7760003 C150.908803,56.7760003 152.233603,58.0720004 152.233603,60.1888004 Z M80.1040002,74.776001 C81.9472002,74.776001 83.2288003,75.9568011 83.3440003,77.9008011 L82.2352002,77.9008011 C82.1200002,76.5616011 81.2272002,75.8704011 80.1040002,75.8704011 C78.9088001,75.8704011 77.9584001,76.6624011 77.9584001,78.1888012 L77.9584001,81.7312013 C77.9584001,83.2576014 78.9088001,84.0496014 80.1040002,84.0496014 C81.2272002,84.0496014 82.1200002,83.3584014 82.2352002,82.0192013 L83.3440003,82.0192013 C83.2288003,83.9632014 81.9472002,85.1440014 80.1040002,85.1440014 C78.1744001,85.1440014 76.8496,83.8480014 76.8496,81.7312013 L76.8496,78.1888012 C76.8496,76.0720011 78.1744001,74.776001 80.1040002,74.776001 Z M90.2992006,81.7312013 L90.2992006,78.1888012 C90.2992006,76.6624011 89.3488005,75.8704011 88.1536005,75.8704011 C86.9584004,75.8704011 86.0080004,76.6624011 86.0080004,78.1888012 L86.0080004,81.7312013 C86.0080004,83.2576014 86.9584004,84.0496014 88.1536005,84.0496014 C89.3488005,84.0496014 90.2992006,83.2576014 90.2992006,81.7312013 Z M91.4080006,78.1888012 L91.4080006,81.7312013 C91.4080006,83.8480014 90.0832006,85.1440014 88.1536005,85.1440014 C86.2240004,85.1440014 84.8992004,83.8480014 84.8992004,81.7312013 L84.8992004,78.1888012 C84.8992004,76.0720011 86.2240004,74.776001 88.1536005,74.776001 C90.0832006,74.776001 91.4080006,76.0720011 91.4080006,78.1888012 Z M97.4272009,81.0256013 L100.336001,74.920001 L101.444801,74.920001 L101.444801,85.0000014 L100.350401,85.0000014 L100.350401,77.2528011 L97.9456009,82.2928013 L96.9088008,82.2928013 L94.5040007,77.2528011 L94.5040007,85.0000014 L93.4096007,85.0000014 L93.4096007,74.920001 L94.5184007,74.920001 L97.4272009,81.0256013 Z M109.840001,74.920001 L110.876801,74.920001 L106.801601,85.0000014 L105.764801,85.0000014 L109.840001,74.920001 Z M117.904002,80.4352012 L116.305602,80.4352012 L116.305602,85.0000014 L115.196802,85.0000014 L115.196802,74.920001 L118.624002,74.920001 C120.769602,74.920001 121.532802,76.3456011 121.532802,77.6848011 C121.532802,78.9088012 120.899202,80.1760012 119.171202,80.4064012 L121.864002,85.0000014 L120.582402,85.0000014 L117.904002,80.4352012 Z M120.409602,77.6848011 C120.409602,76.7200011 119.761602,76.0144011 118.624002,76.0144011 L116.305602,76.0144011 L116.305602,79.3696012 L118.624002,79.3696012 C119.761602,79.3696012 120.409602,78.6496012 120.409602,77.6848011 Z M124.542402,80.4496012 L124.542402,83.9056014 L129.164802,83.9056014 L129.164802,85.0000014 L123.433602,85.0000014 L123.433602,74.920001 L129.164802,74.920001 L129.164802,76.0144011 L124.542402,76.0144011 L124.542402,79.3552012 L129.164802,79.3552012 L129.164802,80.4496012 L124.542402,80.4496012 Z M132.980802,76.0144011 L130.288002,76.0144011 L130.288002,74.920001 L136.782402,74.920001 L136.782402,76.0144011 L134.089602,76.0144011 L134.089602,85.0000014 L132.980802,85.0000014 L132.980802,76.0144011 Z M143.809603,85.0000014 L142.888003,82.1632013 L139.230403,82.1632013 L138.308802,85.0000014 L137.185602,85.0000014 L140.425603,74.920001 L141.692803,74.920001 L144.932803,85.0000014 L143.809603,85.0000014 Z M142.556803,81.1408013 L141.059203,76.4608011 L139.561603,81.1408013 L142.556803,81.1408013 Z M146.286403,85.0000014 L146.286403,74.920001 L147.395203,74.920001 L147.395203,85.0000014 L146.286403,85.0000014 Z M149.699203,85.0000014 L149.699203,74.920001 L150.808003,74.920001 L150.808003,83.9056014 L155.430403,83.9056014 L155.430403,85.0000014 L149.699203,85.0000014 Z" id="Pack-/-Déco-Com-/-Re" fill="#00416D"></path>
                <path d="M85.3150004,24.8100004 L88.0888005,24.8100004 L88.0888005,34.1457008 C88.0888005,37.3542009 86.1016004,39.507001 82.6240003,39.507001 C79.1464001,39.507001 77.1592,37.3542009 77.1592,34.1457008 L77.1592,24.8100004 L79.9330002,24.8100004 L79.9330002,34.1457008 C79.9330002,35.8224008 81.1129002,36.7539009 82.6240003,36.7539009 C84.1351003,36.7539009 85.3150004,35.8224008 85.3150004,34.1457008 L85.3150004,24.8100004 Z M101.523101,24.8100004 L101.523101,39.300001 L98.7493009,39.300001 L93.3673007,29.9643006 L93.3673007,39.300001 L90.5935006,39.300001 L90.5935006,24.8100004 L93.3673007,24.8100004 L98.7493009,34.1457008 L98.7493009,24.8100004 L101.523101,24.8100004 Z M106.987901,24.8100004 L106.987901,39.300001 L104.214101,39.300001 L104.214101,24.8100004 L106.987901,24.8100004 Z M114.833202,34.8909008 L118.435002,24.8100004 L121.353702,24.8100004 L116.178702,39.300001 L113.487701,39.300001 L108.312701,24.8100004 L111.231401,24.8100004 L114.833202,34.8909008 Z M125.452302,27.5631005 L125.452302,30.6060006 L131.496702,30.6060006 L131.496702,33.3591007 L125.452302,33.3591007 L125.452302,36.5469009 L131.496702,36.5469009 L131.496702,39.300001 L122.678502,39.300001 L122.678502,24.8100004 L131.496702,24.8100004 L131.496702,27.5631005 L125.452302,27.5631005 Z M138.327702,33.3384007 L136.630302,33.3384007 L136.630302,39.300001 L133.856502,39.300001 L133.856502,24.8100004 L139.963003,24.8100004 C142.902403,24.8100004 144.537703,26.4660005 144.537703,29.0742006 C144.537703,31.2270006 143.440603,32.7174007 141.412003,33.1935007 L145.013803,39.300001 L141.826003,39.300001 L138.327702,33.3384007 Z M141.763903,29.1156006 C141.763903,28.1013005 141.080803,27.5631005 140.025103,27.5631005 L136.630302,27.5631005 L136.630302,30.6474006 L140.025103,30.6474006 C141.080803,30.6474006 141.763903,30.1092006 141.763903,29.1156006 Z M151.099603,39.507001 C147.932503,39.507001 145.883203,37.6026009 145.738303,34.7253008 L148.594903,34.7253008 C148.760503,35.9466008 149.712703,36.7539009 151.099603,36.7539009 C152.320903,36.7539009 153.169603,36.2985008 153.169603,35.3049008 C153.169603,34.4976008 152.693503,34.0422008 151.679203,33.7731007 L149.236603,33.1107007 C147.021703,32.5104007 145.924603,30.9579006 145.924603,28.8258005 C145.924603,25.9278004 148.201603,24.6030004 150.727003,24.6030004 C153.625003,24.6030004 155.425903,26.3004004 155.736403,28.7637005 L152.879803,28.7637005 C152.631403,27.7908005 151.617103,27.3561005 150.685603,27.3561005 C149.526403,27.3561005 148.698403,27.8115005 148.698403,28.8258005 C148.698403,29.6745006 149.360803,30.0471006 150.147403,30.2541006 L152.507203,30.8958006 C154.742803,31.4961007 155.943403,32.8623007 155.943403,35.3049008 C155.943403,37.9131009 154.246003,39.507001 151.099603,39.507001 Z" id="UNIVERS" fill="#00416D"></path>
            </g>
        </g>
    </g>
</svg>