<?xml version="1.0" encoding="UTF-8"?>
<svg width="210px" height="97px" viewBox="0 0 210 97" version="1.1" xmlns="http://www.w3.org/2000/svg" xmlns:xlink="http://www.w3.org/1999/xlink">
    <!-- Generator: Sketch 50.2 (55047) - http://www.bohemiancoding.com/sketch -->
    <title>Group 12</title>
    <desc>Created with Sketch.</desc>
    <defs>
        <linearGradient x1="111.475769%" y1="-18.0374711%" x2="19.4665677%" y2="71.412037%" id="linearGradient-1">
            <stop stop-color="#FFD500" offset="0%"></stop>
            <stop stop-color="#259DDA" offset="100%"></stop>
        </linearGradient>
    </defs>
    <g id="Page-1" stroke="none" stroke-width="1" fill="none" fill-rule="evenodd">
        <g id="Infos-pratiques-PIP-Copy-4" transform="translate(-763.000000, -457.000000)">
            <g id="Group-12" transform="translate(763.000000, 457.000000)">
                <g id="Group-10">
                    <path d="M52.5107991,25.7319444 C52.5107991,35.1625 48.4611231,43.5152778 40.3617711,48.0958333 C48.0561555,51.8680556 53.4557235,60.3555556 53.4557235,70.8638889 C53.4557235,89.8597222 38.6069114,97 26.7278618,97 C14.8488121,97 0,89.8597222 0,70.8638889 C0,60.3555556 5.39956803,51.8680556 13.0939525,48.0958333 C4.99460043,43.5152778 0.944924406,35.1625 0.944924406,25.7319444 C0.944924406,7.54444444 14.1738661,0 26.7278618,0 C39.2818575,0 52.5107991,7.54444444 52.5107991,25.7319444 Z M46.3012959,70.8638889 C46.3012959,59.5472222 37.3920086,51.4638889 26.7278618,51.4638889 C16.0637149,51.4638889 7.15442765,59.5472222 7.15442765,70.8638889 C7.15442765,82.1805556 16.0637149,90.1291667 26.7278618,90.1291667 C37.3920086,90.1291667 46.3012959,82.1805556 46.3012959,70.8638889 Z M8.09935205,25.7319444 C8.09935205,36.375 14.4438445,44.5930556 26.7278618,44.5930556 C39.011879,44.5930556 45.3563715,36.375 45.3563715,25.7319444 C45.3563715,15.0888889 38.7419006,6.87083333 26.7278618,6.87083333 C14.7138229,6.87083333 8.09935205,15.0888889 8.09935205,25.7319444 Z M125,27.2138889 L125,69.7861111 C125,89.9944444 110.826134,97 98.2721382,97 C85.7181425,97 71.5442765,89.9944444 71.5442765,69.7861111 L71.5442765,27.2138889 C71.5442765,7.00555556 85.7181425,0 98.2721382,0 C110.826134,0 125,7.00555556 125,27.2138889 Z M117.845572,69.7861111 L117.845572,27.2138889 C117.845572,14.6847222 109.611231,6.87083333 98.2721382,6.87083333 C86.9330454,6.87083333 78.6987041,14.6847222 78.6987041,27.2138889 L78.6987041,69.7861111 C78.6987041,82.3152778 86.9330454,90.1291667 98.2721382,90.1291667 C109.611231,90.1291667 117.845572,82.3152778 117.845572,69.7861111 Z" id="80" fill="url(#linearGradient-1)"></path>
                    <rect id="Rectangle-20-Copy-8" fill="#FFFFFF" x="87" y="22" width="123" height="26"></rect>
                    <path d="M99.1193002,30.5631005 L99.1193002,33.6060006 L105.1637,33.6060006 L105.1637,36.3591007 L99.1193002,36.3591007 L99.1193002,39.5469009 L105.1637,39.5469009 L105.1637,42.300001 L96.3455001,42.300001 L96.3455001,27.8100004 L105.1637,27.8100004 L105.1637,30.5631005 L99.1193002,30.5631005 Z M115.824201,42.300001 L112.615701,37.2078008 L109.407201,42.300001 L106.2401,42.300001 L111.042501,34.8066007 L106.5506,27.8100004 L109.717701,27.8100004 L112.615701,32.3640006 L115.513701,27.8100004 L118.680801,27.8100004 L114.188901,34.8066007 L118.991301,42.300001 L115.824201,42.300001 Z M123.172701,35.0964007 L126.319101,35.0964007 C127.850901,35.0964007 128.554701,33.9372006 128.554701,32.8194006 C128.554701,31.7016005 127.850901,30.5631005 126.319101,30.5631005 L123.172701,30.5631005 L123.172701,35.0964007 Z M123.172701,37.8495008 L123.172701,42.300001 L120.398901,42.300001 L120.398901,27.8100004 L126.319101,27.8100004 C129.755301,27.8100004 131.328501,30.1698005 131.328501,32.8194006 C131.328501,35.4483007 129.755301,37.8495008 126.319101,37.8495008 L123.172701,37.8495008 Z M143.458702,37.1457008 C143.458702,40.3542009 141.471502,42.507001 137.993902,42.507001 C134.516302,42.507001 132.529101,40.3542009 132.529101,37.1457008 L132.529101,32.9643006 C132.529101,29.7558005 134.516302,27.6030004 137.993902,27.6030004 C141.471502,27.6030004 143.458702,29.7558005 143.458702,32.9643006 L143.458702,37.1457008 Z M140.684902,37.1457008 L140.684902,32.9643006 C140.684902,31.2876005 139.505002,30.3561005 137.993902,30.3561005 C136.482802,30.3561005 135.302902,31.2876005 135.302902,32.9643006 L135.302902,37.1457008 C135.302902,38.8224008 136.482802,39.7539009 137.993902,39.7539009 C139.505002,39.7539009 140.684902,38.8224008 140.684902,37.1457008 Z M150.165502,42.507001 C146.998402,42.507001 144.949102,40.6026009 144.804202,37.7253008 L147.660802,37.7253008 C147.826402,38.9466008 148.778602,39.7539009 150.165502,39.7539009 C151.386802,39.7539009 152.235502,39.2985008 152.235502,38.3049008 C152.235502,37.4976008 151.759402,37.0422008 150.745102,36.7731007 L148.302502,36.1107007 C146.087602,35.5104007 144.990502,33.9579006 144.990502,31.8258005 C144.990502,28.9278004 147.267502,27.6030004 149.792902,27.6030004 C152.690902,27.6030004 154.491802,29.3004004 154.802302,31.7637005 L151.945702,31.7637005 C151.697302,30.7908005 150.683002,30.3561005 149.751502,30.3561005 C148.592302,30.3561005 147.764302,30.8115005 147.764302,31.8258005 C147.764302,32.6745006 148.426702,33.0471006 149.213302,33.2541006 L151.573102,33.8958006 C153.808702,34.4961007 155.009302,35.8623007 155.009302,38.3049008 C155.009302,40.9131009 153.311902,42.507001 150.165502,42.507001 Z M163.661903,36.7524007 L162.047303,32.0535006 L160.432703,36.7524007 L163.661903,36.7524007 Z M164.614103,39.3813008 L159.480503,39.3813008 L158.445503,42.300001 L155.547502,42.300001 L160.722503,27.8100004 L163.372103,27.8100004 L168.547103,42.300001 L165.649103,42.300001 L164.614103,39.3813008 Z M180.801503,27.8100004 L180.801503,42.300001 L178.027703,42.300001 L172.645703,32.9643006 L172.645703,42.300001 L169.871903,42.300001 L169.871903,27.8100004 L172.645703,27.8100004 L178.027703,37.1457008 L178.027703,27.8100004 L180.801503,27.8100004 Z M193.055904,30.5631005 L189.019404,30.5631005 L189.019404,42.300001 L186.162804,42.300001 L186.162804,30.5631005 L182.126303,30.5631005 L182.126303,27.8100004 L193.055904,27.8100004 L193.055904,30.5631005 Z M198.831204,42.507001 C195.664104,42.507001 193.614804,40.6026009 193.469904,37.7253008 L196.326504,37.7253008 C196.492104,38.9466008 197.444304,39.7539009 198.831204,39.7539009 C200.052504,39.7539009 200.901204,39.2985008 200.901204,38.3049008 C200.901204,37.4976008 200.425104,37.0422008 199.410804,36.7731007 L196.968204,36.1107007 C194.753304,35.5104007 193.656204,33.9579006 193.656204,31.8258005 C193.656204,28.9278004 195.933204,27.6030004 198.458604,27.6030004 C201.356604,27.6030004 203.157504,29.3004004 203.468004,31.7637005 L200.611404,31.7637005 C200.363004,30.7908005 199.348704,30.3561005 198.417204,30.3561005 C197.258004,30.3561005 196.430004,30.8115005 196.430004,31.8258005 C196.430004,32.6745006 197.092404,33.0471006 197.879004,33.2541006 L200.238804,33.8958006 C202.474404,34.4961007 203.675004,35.8623007 203.675004,38.3049008 C203.675004,40.9131009 201.977604,42.507001 198.831204,42.507001 Z" id="EXPOSANTS" fill="#00416D"></path>
                </g>
            </g>
        </g>
    </g>
</svg>