<?xml version="1.0" encoding="UTF-8"?>
<svg width="200px" height="97px" viewBox="0 0 200 97" version="1.1" xmlns="http://www.w3.org/2000/svg" xmlns:xlink="http://www.w3.org/1999/xlink">
    <!-- Generator: Sketch 50.2 (55047) - http://www.bohemiancoding.com/sketch -->
    <title>Group 9</title>
    <desc>Created with Sketch.</desc>
    <defs>
        <linearGradient x1="-7.02387972%" y1="139.183408%" x2="115.695018%" y2="-59.5238095%" id="linearGradient-1">
            <stop stop-color="#59277F" offset="0%"></stop>
            <stop stop-color="#4AAFE8" offset="100%"></stop>
        </linearGradient>
    </defs>
    <g id="Page-1" stroke="none" stroke-width="1" fill="none" fill-rule="evenodd">
        <g id="Infos-pratiques-PIP-Copy-4" transform="translate(-522.000000, -457.000000)">
            <g id="Group-9" transform="translate(522.000000, 457.000000)">
                <g id="Group-6">
                    <path d="M7.14857745,27.2138889 L7.14857745,46.8833333 C10.3856691,42.0333333 17.8040042,37.7222222 26.7060063,37.7222222 C39.2497366,37.7222222 53.4120126,44.7277778 53.4120126,64.9361111 L53.4120126,69.7861111 C53.4120126,89.9944444 39.2497366,97 26.7060063,97 C14.1622761,97 0,89.9944444 0,69.7861111 L0,27.2138889 C0,7.00555556 14.1622761,0 26.7060063,0 C39.2497366,0 53.4120126,7.00555556 53.4120126,27.2138889 L53.4120126,28.2916667 L46.2634352,28.2916667 L46.2634352,27.2138889 C46.2634352,14.6847222 38.0358272,6.87083333 26.7060063,6.87083333 C15.3761855,6.87083333 7.14857745,14.6847222 7.14857745,27.2138889 Z M7.14857745,64.9361111 L7.14857745,69.7861111 C7.14857745,82.3152778 15.3761855,90.1291667 26.7060063,90.1291667 C38.0358272,90.1291667 46.2634352,82.3152778 46.2634352,69.7861111 L46.2634352,64.9361111 C46.2634352,52.4069444 38.0358272,44.5930556 26.7060063,44.5930556 C15.3761855,44.5930556 7.14857745,52.4069444 7.14857745,64.9361111 Z M128,27.2138889 L128,69.7861111 C128,89.9944444 113.837724,97 101.293994,97 C88.7502634,97 74.5879874,89.9944444 74.5879874,69.7861111 L74.5879874,27.2138889 C74.5879874,7.00555556 88.7502634,0 101.293994,0 C113.837724,0 128,7.00555556 128,27.2138889 Z M120.851423,69.7861111 L120.851423,27.2138889 C120.851423,14.6847222 112.623815,6.87083333 101.293994,6.87083333 C89.9641728,6.87083333 81.7365648,14.6847222 81.7365648,27.2138889 L81.7365648,69.7861111 C81.7365648,82.3152778 89.9641728,90.1291667 101.293994,90.1291667 C112.623815,90.1291667 120.851423,82.3152778 120.851423,69.7861111 Z" id="60" fill="url(#linearGradient-1)"></path>
                    <rect id="Rectangle-20-Copy-9" fill="#FFFFFF" x="90" y="23" width="110" height="26"></rect>
                    <path d="M103.796,42.507001 C100.6289,42.507001 98.5796,40.6026009 98.4347,37.7253008 L101.2913,37.7253008 C101.4569,38.9466008 102.4091,39.7539009 103.796,39.7539009 C105.0173,39.7539009 105.866,39.2985008 105.866,38.3049008 C105.866,37.4976008 105.3899,37.0422008 104.3756,36.7731007 L101.933,36.1107007 C99.7181001,35.5104007 98.621,33.9579006 98.621,31.8258005 C98.621,28.9278004 100.898,27.6030004 103.4234,27.6030004 C106.3214,27.6030004 108.1223,29.3004004 108.4328,31.7637005 L105.5762,31.7637005 C105.3278,30.7908005 104.3135,30.3561005 103.382,30.3561005 C102.2228,30.3561005 101.3948,30.8115005 101.3948,31.8258005 C101.3948,32.6745006 102.0572,33.0471006 102.8438,33.2541006 L105.2036,33.8958006 C107.4392,34.4961007 108.6398,35.8623007 108.6398,38.3049008 C108.6398,40.9131009 106.9424,42.507001 103.796,42.507001 Z M113.318001,35.0964007 L116.464401,35.0964007 C117.996201,35.0964007 118.700001,33.9372006 118.700001,32.8194006 C118.700001,31.7016005 117.996201,30.5631005 116.464401,30.5631005 L113.318001,30.5631005 L113.318001,35.0964007 Z M113.318001,37.8495008 L113.318001,42.300001 L110.5442,42.300001 L110.5442,27.8100004 L116.464401,27.8100004 C119.900601,27.8100004 121.473801,30.1698005 121.473801,32.8194006 C121.473801,35.4483007 119.900601,37.8495008 116.464401,37.8495008 L113.318001,37.8495008 Z M125.882901,30.5631005 L125.882901,33.6060006 L131.927301,33.6060006 L131.927301,36.3591007 L125.882901,36.3591007 L125.882901,39.5469009 L131.927301,39.5469009 L131.927301,42.300001 L123.109101,42.300001 L123.109101,27.8100004 L131.927301,27.8100004 L131.927301,30.5631005 L125.882901,30.5631005 Z M141.035302,36.7524007 L139.420702,32.0535006 L137.806102,36.7524007 L141.035302,36.7524007 Z M141.987502,39.3813008 L136.853902,39.3813008 L135.818902,42.300001 L132.920901,42.300001 L138.095902,27.8100004 L140.745502,27.8100004 L145.920502,42.300001 L143.022502,42.300001 L141.987502,39.3813008 Z M150.060502,38.2014008 L150.060502,42.300001 L147.245302,42.300001 L147.245302,27.8100004 L150.060502,27.8100004 L150.060502,34.0614006 L155.380402,27.8100004 L158.920102,27.8100004 L153.827902,33.7923006 L159.437602,42.300001 L156.042802,42.300001 L151.923502,36.0279007 L150.060502,38.2014008 Z M163.370603,30.5631005 L163.370603,33.6060006 L169.415003,33.6060006 L169.415003,36.3591007 L163.370603,36.3591007 L163.370603,39.5469009 L169.415003,39.5469009 L169.415003,42.300001 L160.596802,42.300001 L160.596802,27.8100004 L169.415003,27.8100004 L169.415003,30.5631005 L163.370603,30.5631005 Z M176.246003,36.3384007 L174.548603,36.3384007 L174.548603,42.300001 L171.774803,42.300001 L171.774803,27.8100004 L177.881303,27.8100004 C180.820703,27.8100004 182.456003,29.4660005 182.456003,32.0742006 C182.456003,34.2270006 181.358903,35.7174007 179.330303,36.1935007 L182.932103,42.300001 L179.744303,42.300001 L176.246003,36.3384007 Z M179.682203,32.1156006 C179.682203,31.1013005 178.999103,30.5631005 177.943403,30.5631005 L174.548603,30.5631005 L174.548603,33.6474006 L177.943403,33.6474006 C178.999103,33.6474006 179.682203,33.1092006 179.682203,32.1156006 Z M189.017904,42.507001 C185.850803,42.507001 183.801503,40.6026009 183.656603,37.7253008 L186.513204,37.7253008 C186.678804,38.9466008 187.631004,39.7539009 189.017904,39.7539009 C190.239204,39.7539009 191.087904,39.2985008 191.087904,38.3049008 C191.087904,37.4976008 190.611804,37.0422008 189.597504,36.7731007 L187.154904,36.1107007 C184.940003,35.5104007 183.842903,33.9579006 183.842903,31.8258005 C183.842903,28.9278004 186.119904,27.6030004 188.645304,27.6030004 C191.543304,27.6030004 193.344204,29.3004004 193.654704,31.7637005 L190.798104,31.7637005 C190.549704,30.7908005 189.535404,30.3561005 188.603904,30.3561005 C187.444704,30.3561005 186.616704,30.8115005 186.616704,31.8258005 C186.616704,32.6745006 187.279104,33.0471006 188.065704,33.2541006 L190.425504,33.8958006 C192.661104,34.4961007 193.861704,35.8623007 193.861704,38.3049008 C193.861704,40.9131009 192.164304,42.507001 189.017904,42.507001 Z" id="SPEAKERS" fill="#00416D"></path>
                </g>
            </g>
        </g>
    </g>
</svg>